<?xml version="1.0" encoding="utf-8"?>
<!-- Generator: Adobe Illustrator 15.1.0, SVG Export Plug-In . SVG Version: 6.00 Build 0)  -->
<!DOCTYPE svg PUBLIC "-//W3C//DTD SVG 1.1//EN" "http://www.w3.org/Graphics/SVG/1.1/DTD/svg11.dtd">
<svg version="1.1" id="Layer_1" xmlns="http://www.w3.org/2000/svg" xmlns:xlink="http://www.w3.org/1999/xlink" x="0px" y="0px"
	 width="61.5px" height="50.084px" viewBox="0 0 61.5 50.084" enable-background="new 0 0 61.5 50.084" xml:space="preserve">
<g>
	<polygon fill="#231F20" points="32.5,40.667 38.333,44.709 34.333,50.084 28.5,46.042 	"/>
	<path fill="#231F20" d="M6.667,7.583C6.667,7.583,0,14,0,21.083s7.916,14.25,24.083,14.25C48.333,35.333,61.5,24.5,61.5,12.75
		C61.5,5.583,57.333,0,57.333,0l-4.166,10.833c0,0,4.333,3.917,4.333,5.333s-9.25,9.417-33.75,9.417c-15.75,0-18.667-7-18.667-9.583
		C5.083,10.833,6.667,7.583,6.667,7.583z"/>
</g>
</svg>
