<?xml version="1.0" encoding="utf-8"?>
<!-- Generator: Adobe Illustrator 15.1.0, SVG Export Plug-In . SVG Version: 6.00 Build 0)  -->
<!DOCTYPE svg PUBLIC "-//W3C//DTD SVG 1.1//EN" "http://www.w3.org/Graphics/SVG/1.1/DTD/svg11.dtd">
<svg version="1.1" id="Layer_1" xmlns="http://www.w3.org/2000/svg" xmlns:xlink="http://www.w3.org/1999/xlink" x="0px" y="0px"
	 width="61.5px" height="40.583px" viewBox="0 0 61.5 40.583" enable-background="new 0 0 61.5 40.583" xml:space="preserve">
<g>
	<polygon fill="#231F20" points="30.127,5.781 35.375,9.417 39.375,4.042 33.542,0 30.123,4.594 24.875,0.958 20.875,6.333 
		26.708,10.375 	"/>
	<path fill="#231F20" d="M57.333,5.249l-4.166,10.833c0,0,4.333,3.917,4.333,5.333s-9.25,9.417-33.75,9.417
		c-15.75,0-18.667-7-18.667-9.583c0-5.167,1.583-8.417,1.583-8.417S0,19.25,0,26.333s7.916,14.25,24.083,14.25
		c24.25,0,37.417-10.834,37.417-22.583C61.5,10.833,57.333,5.249,57.333,5.249z"/>
</g>
</svg>
