<?xml version="1.0" encoding="utf-8"?>
<!-- Generator: Adobe Illustrator 15.1.0, SVG Export Plug-In . SVG Version: 6.00 Build 0)  -->
<!DOCTYPE svg PUBLIC "-//W3C//DTD SVG 1.1//EN" "http://www.w3.org/Graphics/SVG/1.1/DTD/svg11.dtd">
<svg version="1.1" id="Layer_1" xmlns="http://www.w3.org/2000/svg" xmlns:xlink="http://www.w3.org/1999/xlink" x="0px" y="0px"
	 width="61.5px" height="50px" viewBox="0 0 61.5 50" enable-background="new 0 0 61.5 50" xml:space="preserve">
<g>
	<polygon fill="#231F20" points="30.127,15.198 35.375,18.834 39.375,13.459 33.542,9.417 30.123,14.011 24.875,10.375 
		20.875,15.75 26.708,19.792 	"/>
	<polygon fill="#231F20" points="32.876,4.042 27.042,0 23.042,5.375 28.876,9.417 	"/>
	<path fill="#231F20" d="M57.333,14.666L53.167,25.5c0,0,4.333,3.917,4.333,5.333s-9.25,9.417-33.75,9.417
		c-15.75,0-18.667-7-18.667-9.583c0-5.167,1.583-8.417,1.583-8.417S0,28.667,0,35.75S7.916,50,24.083,50
		C48.333,50,61.5,39.166,61.5,27.416C61.5,20.25,57.333,14.666,57.333,14.666z"/>
</g>
</svg>
