<?xml version="1.0" encoding="utf-8"?>
<!-- Generator: Adobe Illustrator 15.1.0, SVG Export Plug-In . SVG Version: 6.00 Build 0)  -->
<!DOCTYPE svg PUBLIC "-//W3C//DTD SVG 1.1//EN" "http://www.w3.org/Graphics/SVG/1.1/DTD/svg11.dtd">
<svg version="1.1" id="Layer_1" xmlns="http://www.w3.org/2000/svg" xmlns:xlink="http://www.w3.org/1999/xlink" x="0px" y="0px"
	 width="57.292px" height="71.042px" viewBox="0 20.458 57.292 71.042" enable-background="new 0 20.458 57.292 71.042"
	 xml:space="preserve">
<path fill="#231F20" d="M37.125,91.5c0,0-1.375,0-2.875,0C12.5,91.5,0,82.125,0,66.25C0,45.75,18.25,34,18.25,34
	s-4.624-1.417-9.749-1.417s-8.209,0.875-8.209,0.875s0.334-2.333,0.75-4.5s1.083-4.083,1.083-4.083s4.751-4.417,11.917-4.417
	s18,4.083,23.333,4.083c5.334,0,7,0,7,0l-2.082,8.667c0,0-2.168,0-4.584,0c-14.417,0-32.5,8.667-32.5,25.917
	s24.667,21.499,34.5,21.499s17.584-1.75,17.584-1.75v2.25L37.125,91.5z"/>
</svg>
