<?xml version="1.0" encoding="utf-8"?>
<!-- Generator: Adobe Illustrator 15.1.0, SVG Export Plug-In . SVG Version: 6.00 Build 0)  -->
<!DOCTYPE svg PUBLIC "-//W3C//DTD SVG 1.1//EN" "http://www.w3.org/Graphics/SVG/1.1/DTD/svg11.dtd">
<svg version="1.1" id="Layer_1" xmlns="http://www.w3.org/2000/svg" xmlns:xlink="http://www.w3.org/1999/xlink" x="0px" y="0px"
	 width="57.292px" height="91.5px" viewBox="0 0 57.292 91.5" enable-background="new 0 0 57.292 91.5" xml:space="preserve">
<g>
	<polygon fill="#231F20" points="22.25,5.438 15.125,0 11.312,7.625 18.438,13.062 	"/>
	<path fill="#231F20" d="M37.125,91.5c0,0-1.375,0-2.875,0C12.5,91.5,0,82.125,0,66.25C0,45.75,18.25,34,18.25,34
		s-4.624-1.417-9.749-1.417s-8.209,0.875-8.209,0.875s0.334-2.333,0.75-4.5s1.083-4.083,1.083-4.083s4.751-4.417,11.917-4.417
		s18,4.083,23.333,4.083s7,0,7,0l-2.083,8.667c0,0-2.168,0-4.584,0c-14.416,0-32.5,8.667-32.5,25.917s24.666,21.499,34.5,21.499
		s17.584-1.75,17.584-1.75v2.25L37.125,91.5z"/>
</g>
</svg>
