<?xml version="1.0" encoding="utf-8"?>
<!-- Generator: Adobe Illustrator 15.1.0, SVG Export Plug-In . SVG Version: 6.00 Build 0)  -->
<!DOCTYPE svg PUBLIC "-//W3C//DTD SVG 1.1//EN" "http://www.w3.org/Graphics/SVG/1.1/DTD/svg11.dtd">
<svg version="1.1" id="Layer_1" xmlns="http://www.w3.org/2000/svg" xmlns:xlink="http://www.w3.org/1999/xlink" x="0px" y="0px"
	 width="63.375px" height="50.125px" viewBox="0 0 63.375 50.125" enable-background="new 0 0 63.375 50.125" xml:space="preserve">
<path fill="#231F20" d="M59.375,0c0,0,4,5.625,4,11.062s-1.812,12.812-7.562,12.812s-8.562-5.75-8.562-5.75s-0.438,1.25-2.75,4.312
	s-6.75,3.625-6.75,3.625s1.875,24.062-22.062,24.062C4.125,50.125,0,43.188,0,38.438c0-13.125,9.062-18.312,9.062-18.312
	S4.5,25.812,4.5,30.75S8.875,40,19.375,40S35.5,34.938,35.5,30.812c0-6.5-4.562-11.438-4.562-11.438l4.312-7.625
	c0,0,2.125,4.312,5.688,4.312c4.938,0,9.938-9.625,9.938-9.625s1.312,7.812,6.312,7.812c1.938,0,2.812-0.188,2.812-1.312
	c0-2.312-2.562-2.625-2.562-2.625L59.375,0z"/>
</svg>
