<?xml version="1.0" encoding="utf-8"?>
<!-- Generator: Adobe Illustrator 15.1.0, SVG Export Plug-In . SVG Version: 6.00 Build 0)  -->
<!DOCTYPE svg PUBLIC "-//W3C//DTD SVG 1.1//EN" "http://www.w3.org/Graphics/SVG/1.1/DTD/svg11.dtd">
<svg version="1.1" id="Layer_1" xmlns="http://www.w3.org/2000/svg" xmlns:xlink="http://www.w3.org/1999/xlink" x="0px" y="0px"
	 width="63.375px" height="67.777px" viewBox="0 0 63.375 67.777" enable-background="new 0 0 63.375 67.777" xml:space="preserve">
<g>
	<polygon fill="#231F20" points="41.535,10.434 47.011,14.704 43.132,20.017 37.656,15.748 	"/>
	<polygon fill="#231F20" points="50.098,9.122 55.573,13.391 51.694,18.705 46.219,14.435 	"/>
	<polygon fill="#231F20" points="43.66,0 49.136,4.27 45.257,9.583 39.781,5.313 	"/>
	<path fill="#231F20" d="M59.375,17.652c0,0,4,5.625,4,11.062s-1.812,12.812-7.562,12.812s-8.562-5.75-8.562-5.75
		s-0.438,1.25-2.75,4.312s-6.75,3.625-6.75,3.625s1.875,24.062-22.062,24.062C4.125,67.777,0,60.84,0,56.09
		c0-13.125,9.062-18.312,9.062-18.312S4.5,43.465,4.5,48.402s4.375,9.25,14.875,9.25S35.5,52.59,35.5,48.465
		c0-6.5-4.562-11.438-4.562-11.438l4.312-7.625c0,0,2.125,4.312,5.688,4.312c4.938,0,9.938-9.625,9.938-9.625
		s1.312,7.812,6.312,7.812c1.938,0,2.812-0.188,2.812-1.312c0-2.312-2.562-2.625-2.562-2.625L59.375,17.652z"/>
</g>
</svg>
