<?xml version="1.0" encoding="utf-8"?>
<!-- Generator: Adobe Illustrator 15.1.0, SVG Export Plug-In . SVG Version: 6.00 Build 0)  -->
<!DOCTYPE svg PUBLIC "-//W3C//DTD SVG 1.1//EN" "http://www.w3.org/Graphics/SVG/1.1/DTD/svg11.dtd">
<svg version="1.1" id="Layer_1" xmlns="http://www.w3.org/2000/svg" xmlns:xlink="http://www.w3.org/1999/xlink" x="0px" y="0px"
	 width="75.001px" height="55.062px" viewBox="0 0 75.001 55.062" enable-background="new 0 0 75.001 55.062" xml:space="preserve">
<path fill="#231F20" d="M65.75,0C55.125,0,48.998,11.081,45.658,20.851C44.091,20.946,42.512,21,40.938,21
	c-3.562,0-5.688-4.312-5.688-4.312l-4.312,7.625c0,0,4.562,4.938,4.562,11.438c0,4.125-5.625,9.188-16.125,9.188
	S4.5,40.625,4.5,35.688s4.562-10.625,4.562-10.625S0,30.25,0,43.375c0,4.75,4.125,11.688,15.688,11.688
	C39.625,55.062,37.75,31,37.75,31s3.031,0,5.161,0c-0.558,2.7-0.786,4.438-0.786,4.438s0.474-1.803,1.432-4.442
	C54.555,30.886,75,23.338,75,9.688C75,6.938,75.25,0,65.75,0z M48.441,20.636c3.471-5.678,8.409-10.824,14.934-10.824
	c4.812,0,8.438,2,8.438,4.188C71.812,15.826,60.885,19.478,48.441,20.636z"/>
</svg>
