<?xml version="1.0" encoding="utf-8"?>
<!-- Generator: Adobe Illustrator 15.1.0, SVG Export Plug-In . SVG Version: 6.00 Build 0)  -->
<!DOCTYPE svg PUBLIC "-//W3C//DTD SVG 1.1//EN" "http://www.w3.org/Graphics/SVG/1.1/DTD/svg11.dtd">
<svg version="1.1" id="Layer_1" xmlns="http://www.w3.org/2000/svg" xmlns:xlink="http://www.w3.org/1999/xlink" x="0px" y="0px"
	 width="75.001px" height="62.75px" viewBox="0 0 75.001 62.75" enable-background="new 0 0 75.001 62.75" xml:space="preserve">
<g>
	<path fill="#231F20" d="M65.75,7.688c-10.625,0-16.752,11.081-20.092,20.851c-1.567,0.095-3.146,0.149-4.721,0.149
		c-3.562,0-5.688-4.312-5.688-4.312L30.938,32c0,0,4.562,4.938,4.562,11.438c0,4.125-5.625,9.188-16.125,9.188
		S4.5,48.312,4.5,43.375S9.062,32.75,9.062,32.75S0,37.938,0,51.062c0,4.75,4.125,11.688,15.688,11.688
		c23.938,0,22.062-24.062,22.062-24.062s3.031,0,5.161,0c-0.558,2.7-0.786,4.438-0.786,4.438s0.474-1.803,1.432-4.442
		C54.555,38.573,75,31.025,75,17.375C75,14.625,75.25,7.688,65.75,7.688z M48.441,28.324C51.912,22.646,56.851,17.5,63.375,17.5
		c4.812,0,8.438,2,8.438,4.188C71.812,23.513,60.885,27.165,48.441,28.324z"/>
	<polygon fill="#231F20" points="45.959,0 51.876,4.083 48.459,9.417 42.542,5.333 	"/>
</g>
</svg>
