<?xml version="1.0" encoding="utf-8"?>
<!-- Generator: Adobe Illustrator 15.1.0, SVG Export Plug-In . SVG Version: 6.00 Build 0)  -->
<!DOCTYPE svg PUBLIC "-//W3C//DTD SVG 1.1//EN" "http://www.w3.org/Graphics/SVG/1.1/DTD/svg11.dtd">
<svg version="1.1" id="Layer_1" xmlns="http://www.w3.org/2000/svg" xmlns:xlink="http://www.w3.org/1999/xlink" x="0px" y="0px"
	 width="48.875px" height="56.625px" viewBox="0 0 48.875 56.625" enable-background="new 0 0 48.875 56.625" xml:space="preserve">
<g>
	<polygon fill="#231F20" points="31.459,11 37.376,15.083 33.959,20.417 28.042,16.333 	"/>
	<path fill="#231F20" d="M39.625,25.5c-9.833,0-18.583,14.583-18.583,14.583s1.5-5.083,1.5-10.417s-2.25-8.5-2.25-13.583
		s4.5-8,4.5-8L20.25,0c0,0-5.5,3-5.5,9.5s5.375,23.25,5.375,28.25c0,3.688-2.376,7.3-3.625,8.946
		c-1.018,0.033-2.057,0.054-3.125,0.054C3.875,46.75,0,45.25,0,45.25s1.125,2.5,3.5,5.375s4.625,4.625,4.625,4.625
		s2.875,1.375,7.5,1.375c23.375,0,33.25-14.5,33.25-21.375S44.25,25.5,39.625,25.5z M22.22,46.331
		c0.965-2.243,5.237-10.706,14.78-10.706c6,0,7.25,2.25,7.25,3.75C44.25,40.632,36.34,44.963,22.22,46.331z"/>
</g>
</svg>
