<?xml version="1.0" encoding="utf-8"?>
<!-- Generator: Adobe Illustrator 15.1.0, SVG Export Plug-In . SVG Version: 6.00 Build 0)  -->
<!DOCTYPE svg PUBLIC "-//W3C//DTD SVG 1.1//EN" "http://www.w3.org/Graphics/SVG/1.1/DTD/svg11.dtd">
<svg version="1.1" id="Layer_1" xmlns="http://www.w3.org/2000/svg" xmlns:xlink="http://www.w3.org/1999/xlink" x="0px" y="0px"
	 width="47.667px" height="72.5px" viewBox="0 0 47.667 72.5" enable-background="new 0 0 47.667 72.5" xml:space="preserve">
<g>
	<path fill="#231F20" d="M25.833,5.083c0,0-3.918-5.083-9.084-5.083S3.999,10.167,3.999,17.417c0,4.333,6.584,7,6.584,7
		S0,33.084,0,48.417S14,72.5,26.25,72.5c4.667,0,21.417-8.833,21.417-8.833v-0.75c0,0-6.666,0-15.583,0s-27.25-7.583-27.25-19.75
		c0-16.479,20.666-20.75,20.666-20.75s1.334-1.334,3.584-4.917s3.083-5.833,3.083-5.833s-4,1.166-8,3.083S18.001,19,15.834,19
		s-8.417-3.582-8.417-5.666s3.917-6.25,9.667-7.5S25.833,5.083,25.833,5.083z"/>
</g>
</svg>
