<?xml version="1.0" encoding="utf-8"?>
<!-- Generator: Adobe Illustrator 15.1.0, SVG Export Plug-In . SVG Version: 6.00 Build 0)  -->
<!DOCTYPE svg PUBLIC "-//W3C//DTD SVG 1.1//EN" "http://www.w3.org/Graphics/SVG/1.1/DTD/svg11.dtd">
<svg version="1.1" id="Layer_1" xmlns="http://www.w3.org/2000/svg" xmlns:xlink="http://www.w3.org/1999/xlink" x="0px" y="0px"
	 width="47.667px" height="88.177px" viewBox="0 0 47.667 88.177" enable-background="new 0 0 47.667 88.177" xml:space="preserve">
<g>
	<polygon fill="#231F20" points="12.939,0 18.225,4.121 14.481,9.25 9.195,5.129 	"/>
	<path fill="#231F20" d="M25.833,20.76c0,0-3.918-5.083-9.084-5.083S3.999,25.844,3.999,33.094c0,4.333,6.584,7,6.584,7
		S0,48.761,0,64.094s14,24.083,26.25,24.083c4.667,0,21.417-8.833,21.417-8.833v-0.75c0,0-6.666,0-15.583,0
		s-27.25-7.583-27.25-19.75c0-16.479,20.666-20.75,20.666-20.75s1.334-1.334,3.584-4.917s3.083-5.833,3.083-5.833s-4,1.166-8,3.083
		s-6.166,4.25-8.333,4.25s-8.417-3.582-8.417-5.666s3.917-6.25,9.667-7.5S25.833,20.76,25.833,20.76z"/>
</g>
</svg>
