<?xml version="1.0" encoding="UTF-8" standalone="no"?>
<svg xmlns="http://www.w3.org/2000/svg" width="80" height="80">
  <path d="M25.388 79.207C17.28 76.681.392 65.754.392 63.033c0-3.0247 2.3083-2.7289 9.128 1.1696 3.1378 1.7937 9.5788 3.2977 14.313 3.3421 6.9921.06568 10.552-1.7105 18.959-9.4597l10.351-9.54-7.489-2.44c-13.104-4.269-16.139-19.034-7.389-35.953 11.03-21.33 26.056-6.5558 25.961 25.526-.082 27.39-19.78 49.467-38.838 43.529zM55.16 25.865c0-4.2332-4.7791-8.4434-9.5844-8.4434-4.027 0-5.7784 6.6966-2.5863 9.8887 2.7237 2.7237 12.171 1.6019 12.171-1.4453z"/>
</svg>