<?xml version="1.0" encoding="utf-8"?>
<!-- Generator: Adobe Illustrator 15.1.0, SVG Export Plug-In . SVG Version: 6.00 Build 0)  -->
<!DOCTYPE svg PUBLIC "-//W3C//DTD SVG 1.1//EN" "http://www.w3.org/Graphics/SVG/1.1/DTD/svg11.dtd">
<svg version="1.1" id="Layer_1" xmlns="http://www.w3.org/2000/svg" xmlns:xlink="http://www.w3.org/1999/xlink" x="0px" y="0px"
	 width="62.625px" height="58.677px" viewBox="0 0 62.625 58.677" enable-background="new 0 0 62.625 58.677" xml:space="preserve">
<g>
	<polygon fill="#231F20" points="45.523,0 50.809,4.121 47.065,9.25 41.779,5.129 	"/>
	<path fill="#231F20" d="M54.5,11.677c-5.125,0-10.5,10.75-10.5,17.25c0,4.875,4.875,6.625,6.25,6.625
		c1.269,0,6.68-0.326,7.514-9.007c1.522,1.978,2.695,4.269,2.695,6.424c0,5.375-14.834,14.583-34.834,14.583
		c-19,0-21.25-6.5-21.25-9.375s1.5-7.875,1.5-7.875S0,37.427,0,43.052s4,15.625,21.125,15.625s41.5-7.125,41.5-21.5
		S57.125,11.677,54.5,11.677z M51.875,25.302c-1.791,0-2.958-0.749-2.958-1.708s0.374-2.25,2.333-2.25
		c0.69,0,2.041,0.787,3.498,2.028C53.979,24.429,53.006,25.302,51.875,25.302z"/>
</g>
</svg>
