<?xml version="1.0" encoding="utf-8"?>
<!-- Generator: Adobe Illustrator 15.1.0, SVG Export Plug-In . SVG Version: 6.00 Build 0)  -->
<!DOCTYPE svg PUBLIC "-//W3C//DTD SVG 1.1//EN" "http://www.w3.org/Graphics/SVG/1.1/DTD/svg11.dtd">
<svg version="1.1" id="Layer_1" xmlns="http://www.w3.org/2000/svg" xmlns:xlink="http://www.w3.org/1999/xlink" x="0px" y="0px"
	 width="43.667px" height="63.551px" viewBox="0 0 43.667 63.551" enable-background="new 0 0 43.667 63.551" xml:space="preserve">
<g>
	<g>
		<polygon fill="#231F20" points="35.19,0 40.475,4.121 36.732,9.25 31.446,5.129 		"/>
	</g>
	<g>
		<polygon fill="#231F20" points="26.815,0.802 32.1,4.923 28.357,10.052 23.071,5.931 		"/>
	</g>
	<path fill="#231F20" d="M33.25,16.052c-2.416,0-8.834,7.833-8.834,17.417c0,4.084,3.084,7.833,6.917,7.833s8.167-3.833,8.167-3.833
		s1.5,1.083,1.5,5c0,5.334-10,11.416-21,11.416s-16.333-6.75-16.333-11.75S8,27.969,8,27.969s-8,6.208-8,19.125
		c0,9.583,3.917,16.457,18.583,16.457c14.667,0,25.083-11.082,25.083-26.249S37.167,16.052,33.25,16.052z M31.167,30.594
		c-1.542,0-2.792-1.166-2.792-2.416s1.042-2.584,2.417-2.584s4.042,1.917,4.042,2.667S32.958,30.594,31.167,30.594z"/>
</g>
</svg>
