<?xml version="1.0" encoding="utf-8"?>
<!-- Generator: Adobe Illustrator 15.1.0, SVG Export Plug-In . SVG Version: 6.00 Build 0)  -->
<!DOCTYPE svg PUBLIC "-//W3C//DTD SVG 1.1//EN" "http://www.w3.org/Graphics/SVG/1.1/DTD/svg11.dtd">
<svg version="1.1" id="Layer_1" xmlns="http://www.w3.org/2000/svg" xmlns:xlink="http://www.w3.org/1999/xlink" x="0px" y="0px"
	 width="48.375px" height="67.875px" viewBox="0 0 48.375 67.875" enable-background="new 0 0 48.375 67.875" xml:space="preserve">
<g>
	<path fill="#231F20" d="M42.625,15.75c0-4.25,3.5-7.052,3.5-7.052L39.625,0c0,0-5.25,2.521-5.25,8.698s10.5,35.677,10.5,41.552
		c0,2.5-1.5,4.25-6.25,4.25s-25.833,0-29.25,0s-6-5.25-6-5.25S0,55.5,0,60.625s1.125,7.25,20.625,7.25
		c17.625,0,27.75-2.625,27.75-19.25C48.375,39.125,42.625,20,42.625,15.75z"/>
	<path fill="#231F20" d="M19.5,43.375c0,0,7.25-3.125,7.25-10.25c0-6.125-9.5-4.875-9.5-8s6.25-4,6.25-4l-1.875-4.875
		c0,0-10.125,6.625-10.125,13s8.5,5.375,8.5,6.875s-6.25,3.5-8.875,3.5s-3.875,0-3.875,0s4.875,3.75,8.875,3.75H19.5z"/>
</g>
</svg>
