<?xml version="1.0" encoding="utf-8"?>
<!-- Generator: Adobe Illustrator 15.1.0, SVG Export Plug-In . SVG Version: 6.00 Build 0)  -->
<!DOCTYPE svg PUBLIC "-//W3C//DTD SVG 1.1//EN" "http://www.w3.org/Graphics/SVG/1.1/DTD/svg11.dtd">
<svg version="1.1" id="Layer_1" xmlns="http://www.w3.org/2000/svg" xmlns:xlink="http://www.w3.org/1999/xlink" x="0px" y="0px"
	 width="27.25px" height="63.5px" viewBox="0 0 27.25 63.5" enable-background="new 0 0 27.25 63.5" xml:space="preserve">
<path fill="#231F20" d="M2.25,14.375C2.25,14.375,6.75,0,13.125,0S27.25,14.375,27.25,17s-4.375,9.375-4.375,9.375
	s-9.875,0-13.375,0S2.625,29,2.625,31.125s7.625,21.625,7.625,26S8.375,63.5,8.375,63.5S0,33.125,0,28.125s3.75-12,10.375-12
	c4,0,6.25,0,6.25,0s-4.25-4.875-6.875-4.875s-5.25,3.876-6.083,3.876S2.25,14.375,2.25,14.375z"/>
</svg>
