<?xml version="1.0" encoding="utf-8"?>
<!-- Generator: Adobe Illustrator 15.1.0, SVG Export Plug-In . SVG Version: 6.00 Build 0)  -->
<!DOCTYPE svg PUBLIC "-//W3C//DTD SVG 1.1//EN" "http://www.w3.org/Graphics/SVG/1.1/DTD/svg11.dtd">
<svg version="1.1" id="Layer_1" xmlns="http://www.w3.org/2000/svg" xmlns:xlink="http://www.w3.org/1999/xlink" x="0px" y="0px"
	 width="50.5px" height="57.959px" viewBox="54.75 5.535 50.5 57.959" enable-background="new 54.75 5.535 50.5 57.959"
	 xml:space="preserve">
<g>
	<polygon fill="#231F20" points="77.752,58.9 83,62.535 87,57.16 81.167,53.119 77.748,57.713 72.5,54.076 68.5,59.451 
		74.333,63.494 	"/>
	<path fill="#231F20" d="M63.875,17.535c0,0-9.125,10.625-9.125,21.375s10.375,12.5,16.875,12.5c19.125,0,31.5-11.875,31.5-16.875
		c0-9.75-16.5-3.625-16.5-11.875c0-6.125,9.25-7.375,12-7.375c4.125,0,5,1.5,5,1.5s1.625-4,1.625-6.75s-1.125-4.5-4.625-4.5
		S80,20.41,80,27.285c0,5.875,5,7.125,8.75,7.125s9.375-0.375,9.375,1.375s-8.75,5.625-20.25,5.625s-18.5-4.25-18.5-11.75
		S63.875,17.535,63.875,17.535z"/>
</g>
</svg>
