<?xml version="1.0" encoding="UTF-8" standalone="no"?>
<!-- Created with Inkscape (http://www.inkscape.org/) -->

<svg
   xmlns:svg="http://www.w3.org/2000/svg"
   xmlns="http://www.w3.org/2000/svg"
   version="1.0"
   width="17.629999"
   height="21.809999"
   id="svg2">
  <defs
     id="defs4" />
  <g
     transform="translate(-21.18256,-28.638496)"
     id="layer1">
    <path
       d="m 38.420429,39.871487 c -0.492204,1.804694 -1.265641,2.953131 -2.320312,3.445312 l -13.886719,6.644531 0,-0.667968 c -1e-6,-1.499999 2.179684,-3.128904 6.539062,-4.886719 -4.640628,-0.914057 -6.960938,-2.496087 -6.960937,-4.746094 -1e-6,-1.781239 1.148435,-4.08983 3.445312,-6.925781 1.921869,-2.390606 3.749992,-3.585918 5.484375,-3.585938 0.867177,2e-5 1.58788,0.316426 2.16211,0.949219 0.574206,0.632831 0.861315,1.394549 0.861328,2.285156 -1.3e-5,0.843766 -0.527356,2.039077 -1.582031,3.585938 -0.960948,-1.570298 -2.121103,-2.355454 -3.480469,-2.355469 -1.101569,1.5e-5 -2.044928,0.410171 -2.830078,1.230469 -0.785161,0.820326 -1.177738,1.699231 -1.177735,2.636719 -3e-6,0.93751 0.914058,1.792978 2.742188,2.566406 1.734367,0.750008 3.550771,1.125008 5.449219,1.125 1.382799,8e-6 3.234359,-0.433586 5.554687,-1.300781 l 0,0 z"
       id="text1872"
       style="font-size:72px;font-style:normal;font-weight:normal;fill:#000000;fill-opacity:1;stroke:none;font-family:Traditional Arabic" />
  </g>
</svg>
